<?xml version="1.0" encoding="UTF-8" standalone="no"?>
<!DOCTYPE svg PUBLIC "-//W3C//DTD SVG 1.1//EN" "http://www.w3.org/Graphics/SVG/1.1/DTD/svg11.dtd">
<svg width="100%" height="100%" viewBox="0 0 2160 2160" version="1.1" xmlns="http://www.w3.org/2000/svg" xmlns:xlink="http://www.w3.org/1999/xlink" xml:space="preserve" xmlns:serif="http://www.serif.com/" style="fill-rule:evenodd;clip-rule:evenodd;stroke-linejoin:round;stroke-miterlimit:2;">
    <g transform="matrix(0.53968,0,0,0.53968,0.639952,0.639952)">
        <path d="M1021.26,3510.55C527.101,3189.52 200,2632.66 200,2000C200,1006.55 1006.55,200 2000,200C2242.34,200 2473.55,247.993 2684.65,334.984L2684.65,2057.26L2851.49,2057.26C2913.34,2057.26 2963.49,2007.12 2963.49,1945.26L2963.49,479.653C3466.16,799.07 3800,1360.86 3800,2000C3800,2993.45 2993.45,3800 2000,3800C1751.82,3800 1515.3,3749.66 1300.1,3658.65L1300.1,2007.47L1089.94,2007.47C1071.73,2007.47 1054.26,2014.71 1041.38,2027.59C1028.5,2040.47 1021.26,2057.93 1021.26,2076.15L1021.26,3510.55ZM2359.12,704.248L1752.88,704.248C1691.03,704.248 1640.88,754.392 1640.88,816.248L1640.88,3295.75L2247.12,3295.75C2308.97,3295.75 2359.12,3245.61 2359.12,3183.75L2359.12,704.248ZM2000,1123.41C2024.6,1123.41 2048.2,1133.19 2065.59,1150.58C2082.99,1167.98 2092.76,1191.57 2092.76,1216.17L2092.76,2783.83C2092.76,2808.43 2082.99,2832.02 2065.59,2849.42C2048.2,2866.81 2024.6,2876.59 2000,2876.59C1975.4,2876.59 1951.8,2866.81 1934.41,2849.42C1917.01,2832.02 1907.24,2808.43 1907.24,2783.83L1907.24,1216.17C1907.24,1191.57 1917.01,1167.98 1934.41,1150.58C1951.8,1133.19 1975.4,1123.41 2000,1123.41Z" style="fill:url(#_Linear1);"/>
    </g>
    <defs>
        <linearGradient id="_Linear1" x1="0" y1="0" x2="1" y2="0" gradientUnits="userSpaceOnUse" gradientTransform="matrix(2880,3600,-3600,2880,560,200)"><stop offset="0" style="stop-color:rgb(226,88,68);stop-opacity:1"/><stop offset="0.4" style="stop-color:rgb(194,59,39);stop-opacity:1"/><stop offset="1" style="stop-color:rgb(138,28,14);stop-opacity:1"/></linearGradient>
    </defs>
</svg>
